<?xml version="1.0" encoding="UTF-8"?>
<svg xmlns="http://www.w3.org/2000/svg" xmlns:xlink="http://www.w3.org/1999/xlink" width="58px" height="50px" viewBox="0 0 57 50" version="1.1">
<g id="surface1">
<path style=" stroke:none;fill-rule:nonzero;fill:rgb(80%,80%,80%);fill-opacity:1;" d="M 19.34375 6.222656 C 19.066406 6.855469 17.3125 11.324219 16.421875 13.675781 C 15.125 17.097656 14.976562 17.65625 15.136719 18.394531 C 15.257812 18.960938 15.257812 18.964844 14.257812 21.367188 C 11.261719 28.535156 10.089844 31.476562 10.089844 31.820312 C 10.089844 31.917969 10.152344 31.96875 10.648438 32.28125 C 11.421875 32.765625 12.382812 33.332031 14.476562 34.535156 C 17.949219 36.527344 17.980469 36.542969 18.300781 36.828125 C 18.769531 37.238281 19.289062 37.964844 19.980469 39.183594 C 20.707031 40.464844 20.929688 40.738281 21.625 41.214844 C 22.53125 41.835938 24.441406 42.945312 24.503906 42.890625 C 24.523438 42.863281 24.4375 42.433594 24.273438 41.777344 C 24.039062 40.835938 21.589844 31.929688 21.488281 31.65625 C 21.449219 31.546875 21.449219 31.535156 21.035156 32.519531 C 20.667969 33.390625 20.300781 34.21875 20.261719 34.265625 C 20.21875 34.308594 19.578125 33.980469 17.996094 33.105469 C 16.257812 32.144531 15.320312 31.589844 15.320312 31.523438 C 15.320312 31.488281 15.410156 31.371094 16.019531 30.617188 C 16.519531 30.007812 16.765625 29.660156 16.800781 29.523438 C 16.832031 29.386719 16.808594 29.371094 15.949219 28.890625 C 14.445312 28.054688 14.53125 28.125 14.535156 27.75 C 14.539062 27.464844 14.582031 27.339844 15.164062 26 C 15.65625 24.871094 16.488281 23.175781 16.941406 22.371094 C 17.742188 20.957031 18.480469 19.945312 19.410156 18.980469 C 19.90625 18.457031 19.945312 18.410156 19.894531 18.335938 C 19.863281 18.289062 19.605469 17.957031 19.3125 17.59375 C 18.671875 16.789062 18.359375 16.339844 18.359375 16.214844 C 18.359375 16.085938 18.691406 15.019531 19.101562 13.839844 C 19.476562 12.761719 20.21875 10.742188 20.261719 10.695312 C 20.289062 10.664062 21.957031 12.449219 22.417969 13 C 23.1875 13.921875 23.390625 14.386719 23.445312 15.363281 C 23.464844 15.648438 23.503906 15.898438 23.535156 15.964844 C 23.574219 16.050781 23.679688 16.125 23.898438 16.222656 C 24.542969 16.523438 25.050781 16.9375 25.320312 17.390625 C 25.542969 17.769531 25.890625 19.226562 27.21875 25.300781 C 28.132812 29.472656 28.355469 30.433594 28.433594 30.539062 C 28.480469 30.609375 28.488281 30.605469 28.53125 30.492188 C 28.605469 30.300781 28.996094 28.582031 29.726562 25.230469 C 30.847656 20.121094 31.339844 18.011719 31.5 17.683594 C 31.625 17.414062 32 16.953125 32.296875 16.707031 C 32.445312 16.582031 32.734375 16.394531 32.941406 16.296875 C 33.285156 16.128906 33.328125 16.097656 33.394531 15.941406 C 33.4375 15.847656 33.5 15.585938 33.539062 15.359375 C 33.683594 14.40625 33.777344 14.183594 34.351562 13.410156 C 34.871094 12.714844 36.679688 10.539062 36.742188 10.535156 C 36.761719 10.535156 36.980469 11.136719 37.230469 11.878906 C 37.476562 12.617188 37.828125 13.648438 38.011719 14.164062 C 38.464844 15.46875 38.527344 15.808594 38.402344 16.355469 C 38.285156 16.859375 38.066406 17.199219 37.394531 17.917969 L 36.957031 18.386719 L 37.691406 19.128906 C 38.84375 20.296875 39.539062 21.253906 40.191406 22.570312 C 40.65625 23.5 42.308594 27.550781 42.324219 27.789062 C 42.332031 27.894531 42.273438 27.945312 41.5625 28.429688 C 40.554688 29.117188 40.21875 29.363281 40.140625 29.476562 C 40.058594 29.601562 40.0625 29.609375 40.769531 30.449219 C 41.335938 31.128906 41.625 31.5 41.625 31.5625 C 41.625 31.582031 41.480469 31.679688 41.3125 31.777344 C 40.332031 32.34375 36.875 34.242188 36.714844 34.304688 C 36.660156 34.324219 36.589844 34.191406 36.335938 33.578125 C 35.902344 32.542969 35.621094 31.941406 35.566406 31.960938 C 35.496094 31.980469 35.0625 33.359375 34.351562 35.800781 C 33.234375 39.675781 32.421875 42.597656 32.421875 42.761719 C 32.421875 42.84375 32.496094 42.828125 32.835938 42.675781 C 33.566406 42.351562 35.058594 41.402344 35.519531 40.964844 C 35.878906 40.625 36.378906 39.863281 37.242188 38.339844 L 37.90625 37.164062 L 38.398438 36.890625 C 38.667969 36.738281 39.878906 36.054688 41.097656 35.378906 C 45.089844 33.15625 46.335938 32.449219 46.722656 32.183594 C 46.871094 32.078125 46.890625 32.050781 46.890625 31.910156 C 46.890625 31.820312 46.855469 31.628906 46.8125 31.480469 C 46.636719 30.917969 45.582031 28.34375 42.9375 22.035156 L 41.871094 19.488281 L 41.988281 18.78125 C 42.058594 18.394531 42.109375 17.988281 42.109375 17.878906 C 42.109375 17.421875 41.878906 16.746094 40.425781 13 C 38.292969 7.472656 37.75 6.144531 37.628906 6.09375 C 37.59375 6.082031 37.273438 6.398438 36.792969 6.921875 C 35.78125 8.015625 33.589844 10.480469 32.992188 11.191406 C 32.125 12.21875 31.882812 12.476562 31.585938 12.71875 C 30.824219 13.328125 30.011719 13.5 28.292969 13.410156 C 26.882812 13.335938 26.21875 13.238281 25.902344 13.058594 C 25.511719 12.832031 24.476562 11.683594 21.398438 8.058594 C 19.886719 6.28125 19.585938 5.945312 19.515625 5.945312 C 19.488281 5.945312 19.410156 6.070312 19.34375 6.222656 Z M 19.34375 6.222656 "/>
<path style=" stroke:none;fill-rule:nonzero;fill:rgb(80%,80%,80%);fill-opacity:1;" d="M 20.265625 25.972656 C 20.265625 26.320312 21.210938 28.605469 21.445312 28.816406 C 21.628906 28.992188 22.25 29.265625 23.363281 29.675781 C 24.203125 29.984375 24.546875 30.175781 25.167969 30.6875 C 25.355469 30.84375 25.515625 30.953125 25.523438 30.929688 C 25.542969 30.871094 25.027344 28.558594 24.90625 28.152344 C 24.765625 27.699219 24.652344 27.546875 24.347656 27.398438 C 24.085938 27.277344 21.703125 26.382812 20.785156 26.0625 C 20.277344 25.886719 20.265625 25.882812 20.265625 25.972656 Z M 20.265625 25.972656 "/>
<path style=" stroke:none;fill-rule:nonzero;fill:rgb(80%,80%,80%);fill-opacity:1;" d="M 36.414062 26.007812 C 35.019531 26.492188 33.234375 27.183594 32.746094 27.429688 C 32.457031 27.574219 32.4375 27.585938 32.351562 27.816406 C 32.191406 28.226562 31.945312 29.0625 31.734375 29.910156 C 31.539062 30.691406 31.496094 30.964844 31.5625 30.964844 C 31.582031 30.964844 31.757812 30.824219 31.957031 30.652344 C 32.535156 30.160156 32.996094 29.921875 34.289062 29.445312 C 35 29.183594 35.546875 28.910156 35.695312 28.734375 C 35.75 28.664062 35.878906 28.4375 35.972656 28.234375 C 36.148438 27.867188 36.800781 26.078125 36.800781 25.972656 C 36.800781 25.898438 36.707031 25.910156 36.414062 26.007812 Z M 36.414062 26.007812 "/>
<path style=" stroke:none;fill-rule:nonzero;fill:rgb(80%,80%,80%);fill-opacity:1;" d="M 25.238281 38.375 C 25.222656 38.386719 25.210938 38.828125 25.210938 39.359375 L 25.210938 40.3125 L 28.484375 40.304688 L 31.753906 40.292969 L 31.765625 39.34375 L 31.773438 38.398438 L 31.503906 38.375 C 31.132812 38.335938 25.269531 38.335938 25.238281 38.375 Z M 25.238281 38.375 "/>
</g>
</svg>
